<svg width="18" height="18" viewBox="0 0 18 18" xmlns="http://www.w3.org/2000/svg" role="img" aria-label="Google">
  <path fill="#4285F4" d="M17.64 9.2045c0-.6382-.0573-1.2518-.1636-1.8409H9v3.4818h4.8436c-.2086 1.125-.8432 2.0782-1.7977 2.7159v2.2586h2.9086c1.7022-1.5677 2.6855-3.8786 2.6855-6.6154z"/>
  <path fill="#34A853" d="M9 18c2.43 0 4.4673-.8059 5.9564-2.1804l-2.9086-2.2586c-.8059.5409-1.8368.8591-3.0478.8591-2.3441 0-4.3282-1.5832-5.0373-3.7091H.9573v2.3323C2.4382 15.9845 5.4818 18 9 18z"/>
  <path fill="#FBBC05" d="M3.9627 10.7109A5.4077 5.4077 0 0 1 3.6818 9c0-.5932.1023-1.1682.2809-1.7109V4.9568H.9573A8.996 8.996 0 0 0 0 9c0 1.4523.3477 2.8273.9573 4.0432l3.0054-2.3323z"/>
  <path fill="#EA4335" d="M9 3.5795c1.3214 0 2.5077.4541 3.44 1.345l2.58-2.58C13.4632.8918 11.43 0 9 0 5.4818 0 2.4382 2.0155.9573 4.9568l3.0054 2.3323C4.6718 5.1627 6.6559 3.5795 9 3.5795z"/>
</svg>
